<svg xmlns="http://www.w3.org/2000/svg" viewBox="0 0 512 512">
  <defs>
    <radialGradient id="bg" cx="30%" cy="30%" r="80%">
      <stop offset="0%" stop-color="#a78bfa"/>
      <stop offset="100%" stop-color="#0c0a1f"/>
    </radialGradient>
    <radialGradient id="b1" cx="30%" cy="30%">
      <stop offset="0%" stop-color="#fef3c7"/>
      <stop offset="100%" stop-color="#f472b6"/>
    </radialGradient>
    <radialGradient id="b2" cx="30%" cy="30%">
      <stop offset="0%" stop-color="#bae6fd"/>
      <stop offset="100%" stop-color="#3b82f6"/>
    </radialGradient>
    <radialGradient id="b3" cx="30%" cy="30%">
      <stop offset="0%" stop-color="#bbf7d0"/>
      <stop offset="100%" stop-color="#22c55e"/>
    </radialGradient>
  </defs>
  <rect width="512" height="512" rx="115" fill="url(#bg)"/>
  <circle cx="180" cy="320" r="90" fill="url(#b1)"/>
  <circle cx="160" cy="295" r="14" fill="white"/>
  <circle cx="200" cy="295" r="14" fill="white"/>
  <circle cx="162" cy="298" r="6" fill="#0f172a"/>
  <circle cx="202" cy="298" r="6" fill="#0f172a"/>
  <path d="M 150 340 Q 180 360 210 340" stroke="#0f172a" stroke-width="6" fill="none" stroke-linecap="round"/>
  <circle cx="340" cy="240" r="60" fill="url(#b2)" opacity="0.95"/>
  <circle cx="328" cy="225" r="9" fill="white"/>
  <circle cx="352" cy="225" r="9" fill="white"/>
  <circle cx="329" cy="227" r="4" fill="#0f172a"/>
  <circle cx="353" cy="227" r="4" fill="#0f172a"/>
  <circle cx="290" cy="380" r="40" fill="url(#b3)" opacity="0.9"/>
  <circle cx="60" cy="80" r="3" fill="white" opacity="0.9"/>
  <circle cx="430" cy="120" r="2" fill="white" opacity="0.7"/>
  <circle cx="460" cy="380" r="3" fill="white" opacity="0.8"/>
  <circle cx="80" cy="430" r="2" fill="white" opacity="0.7"/>
</svg>
